<svg xmlns="http://www.w3.org/2000/svg" width="1200" height="630" viewBox="0 0 1200 630">
  <rect width="1200" height="630" fill="#FFFFFF"/>
  <text x="600" y="56" text-anchor="middle" font-family="Inter, Arial" font-size="28" fill="#0F172A">Component Lifecycle</text>

  <g stroke="#CBD5E1" fill="#F8FAFC" font-family="Inter, Arial" font-size="16" text-anchor="middle">
    <rect x="120" y="140" width="180" height="70" rx="10"/>
    <text x="210" y="185">RFC</text>
    
    <rect x="360" y="140" width="180" height="70" rx="10"/>
    <text x="450" y="185">Design Review</text>
    
    <rect x="600" y="140" width="180" height="70" rx="10"/>
    <text x="690" y="185">Prototype</text>
    
    <rect x="840" y="140" width="180" height="70" rx="10"/>
    <text x="930" y="185">Docs</text>

    <rect x="240" y="300" width="240" height="70" rx="10"/>
    <text x="360" y="345">Release</text>

    <rect x="600" y="300" width="240" height="70" rx="10"/>
    <text x="720" y="345">Adoption Support</text>
  </g>

  <g stroke="#64748B" stroke-width="2" fill="none">
    <line x1="300" y1="210" x2="360" y2="210"/>
    <line x1="540" y1="210" x2="600" y2="210"/>
    <line x1="780" y1="210" x2="840" y2="210"/>
    <line x1="300" y1="210" x2="300" y2="300"/>
    <line x1="900" y1="210" x2="900" y2="300"/>
  </g>
</svg>

